<svg id="Layer_1" data-name="Layer 1" xmlns="http://www.w3.org/2000/svg" viewBox="0 0 122.88 78.78"><defs><style>.cls-1{fill-rule:evenodd;}</style></defs><title>on-time-delivery</title><path class="cls-1" d="M90.53,24.33,82,24.27V12.8a6.21,6.21,0,0,0-6.19-6.19H50.72a30.05,30.05,0,0,1,2,3.36H75.85a2.86,2.86,0,0,1,2,.83,2.83,2.83,0,0,1,.83,2V65.34H69.22a1.68,1.68,0,1,0,0,3.35H80.36A1.67,1.67,0,0,0,82,67V65.11h6.78c.77-17.46,25.84-19.87,28.4,0h5.5c1.42-17-7-23.65-19.77-25.14a45.78,45.78,0,0,0-4.66-11.38c-2.36-4.36-2.91-4.18-7.76-4.26ZM16.27,20.05,20.74,20l.33.08a17.34,17.34,0,0,1,2.54,1.79,16.26,16.26,0,0,1,1.64,1.58,104.87,104.87,0,0,1,6.52-9,116,116,0,0,1,8.32-9.14l.44-.16H45.4l-1,1.09a162.08,162.08,0,0,0-10.29,13A141.12,141.12,0,0,0,26.06,32.2l-.61,1.18-.56-1.21a29.27,29.27,0,0,0-3.77-6.1,24.5,24.5,0,0,0-5.21-4.83l.36-1.19ZM35,39.26a1.6,1.6,0,1,1-2.77,1.6l-.87-1.5a1.6,1.6,0,1,1,2.77-1.6l.87,1.5ZM14.42,10.11a1.6,1.6,0,1,1,2.77-1.6l.87,1.5a1.6,1.6,0,1,1-2.77,1.6l-.87-1.5ZM40.86,32.18A1.6,1.6,0,1,1,39.26,35l-1.5-.87a1.6,1.6,0,1,1,1.6-2.77l1.5.87ZM8.51,17.2a1.6,1.6,0,0,1,1.6-2.78l1.5.87A1.6,1.6,0,1,1,10,18.06l-1.5-.86Zm33.93,5.88a1.61,1.61,0,1,1,0,3.21H40.7a1.61,1.61,0,0,1,0-3.21ZM6.93,26.29a1.61,1.61,0,1,1,0-3.21H8.66a1.61,1.61,0,1,1,0,3.21ZM10.11,35a1.6,1.6,0,1,1-1.6-2.77l1.5-.87a1.6,1.6,0,1,1,1.6,2.77l-1.5.87Zm7.08,5.91a1.6,1.6,0,1,1-2.77-1.6l.87-1.5a1.6,1.6,0,1,1,2.77,1.6l-.87,1.5ZM23.08,6.93a1.61,1.61,0,1,1,3.21,0V8.67a1.61,1.61,0,0,1-3.21,0V6.93Zm3.21,35.51a1.61,1.61,0,1,1-3.21,0V40.71a1.61,1.61,0,1,1,3.21,0v1.73ZM24.68,0A24.64,24.64,0,0,1,35.79,2.63c-.65.64-1.34,1.36-2,2.11A21.91,21.91,0,1,0,44,14.37c.63-.79,1.27-1.56,1.9-2.3A24.69,24.69,0,1,1,24.68,0Zm10,65.33a1.68,1.68,0,0,1,0,3.36H16.82a6.07,6.07,0,0,1-4.37-1.91,6.48,6.48,0,0,1-1.82-4.45V53.1A32.11,32.11,0,0,0,14,54.53v7.8a3.11,3.11,0,0,0,.88,2.14,2.72,2.72,0,0,0,1.95.87H34.65ZM51.72,56A11.37,11.37,0,1,0,63.08,67.41,11.37,11.37,0,0,0,51.72,56Zm0,7a4.37,4.37,0,1,0,4.37,4.37A4.38,4.38,0,0,0,51.72,63ZM103,54.37a11.37,11.37,0,1,0,11.37,11.37A11.37,11.37,0,0,0,103,54.37ZM98.61,65.74A4.37,4.37,0,1,0,103,61.37a4.37,4.37,0,0,0-4.37,4.37ZM91.35,29.18l-5.12-.09V40H97.08a42.13,42.13,0,0,0-5.73-10.8Z"/></svg>