<?xml version="1.0" encoding="utf-8"?>
<!-- Generator: Adobe Illustrator 19.0.0, SVG Export Plug-In . SVG Version: 6.00 Build 0)  -->
<svg version="1.1" xmlns="http://www.w3.org/2000/svg" xmlns:xlink="http://www.w3.org/1999/xlink" x="0px" y="0px"
	 viewBox="0 0 64 64" style="enable-background:new 0 0 64 64;" xml:space="preserve">
<style type="text/css">
	.st0{display:none;}
	.st1{display:inline;fill:#FFFFFF;}
	.st2{display:inline;}
	.st3{fill:none;stroke:#4C5159;stroke-width:2;stroke-miterlimit:10;}
	.st4{display:inline;fill:none;stroke:#4C5159;stroke-width:2;stroke-miterlimit:10;}
	.st5{fill:none;stroke:#4C5159;stroke-width:2;stroke-miterlimit:10;stroke-dasharray:1.9857,1.9857;}
	.st6{display:inline;fill:none;stroke:#4C5159;stroke-width:2;stroke-miterlimit:10;stroke-dasharray:2;}
	.st7{fill:none;stroke:#4C5159;stroke-width:2;stroke-miterlimit:10;stroke-dasharray:2;}
	.st8{display:inline;fill:none;stroke:#4C5159;stroke-width:2;stroke-miterlimit:10;stroke-dasharray:3;}
	.st9{fill:none;stroke:#4C5159;stroke-width:2;stroke-miterlimit:10;stroke-dasharray:3;}
	.st10{fill:#4C5159;}
	.st11{font-family:'Montserrat-Bold';}
	.st12{font-size:7px;}
	.st13{display:inline;fill:#74E2F0;}
	.st14{display:inline;fill:#FBDA73;}
	.st15{display:inline;fill:#F08E70;}
</style>
<g id="bg" class="st0">
	<rect id="XMLID_119_" x="-218" y="-268.2" class="st1" width="500" height="600.3"/>
</g>
<g id="guideline" class="st0">
</g>
<g id="icons">
	<g id="XMLID_72_" class="st0">
		<g id="XMLID_8_" class="st2">
			<path id="XMLID_59_" class="st3" d="M26.4,41.1V16.6l2.9-4.5c0.1-0.2,0.4-0.2,0.5,0l2.8,4.5v24.6"/>
			<line id="XMLID_4_" class="st3" x1="26.1" y1="17.7" x2="32.9" y2="17.7"/>
		</g>
		<g id="XMLID_746_" class="st2">
			<polyline id="XMLID_58_" class="st3" points="15,41.1 15,18.8 17.8,15.6 20.6,18.8 20.6,41.1 			"/>
			<line id="XMLID_743_" class="st3" x1="17.8" y1="16.6" x2="17.8" y2="13"/>
			<line id="XMLID_742_" class="st3" x1="20.7" y1="38.3" x2="14.9" y2="38.3"/>
			<line id="XMLID_736_" class="st3" x1="20.7" y1="23" x2="14.9" y2="23"/>
		</g>
		<g id="XMLID_40_" class="st2">
			<path id="XMLID_9_" class="st3" d="M55.4,52.1H8.6c-0.1,0-0.2-0.1-0.2-0.2v-8.5c0-0.1,0.1-0.2,0.2-0.2h46.8
				c0.1,0,0.2,0.1,0.2,0.2v8.5C55.6,52,55.5,52.1,55.4,52.1z"/>
			<line id="XMLID_14_" class="st3" x1="12.9" y1="43.2" x2="12.9" y2="46.9"/>
			<line id="XMLID_13_" class="st3" x1="17.6" y1="43.2" x2="17.6" y2="46.9"/>
			<line id="XMLID_15_" class="st3" x1="22.4" y1="43.2" x2="22.4" y2="46.9"/>
			<line id="XMLID_16_" class="st3" x1="27.1" y1="43.2" x2="27.1" y2="46.9"/>
			<line id="XMLID_17_" class="st3" x1="31.8" y1="43.2" x2="31.8" y2="46.9"/>
			<line id="XMLID_21_" class="st3" x1="36.5" y1="43.2" x2="36.5" y2="46.9"/>
			<line id="XMLID_25_" class="st3" x1="41.2" y1="43.2" x2="41.2" y2="46.9"/>
			<line id="XMLID_29_" class="st3" x1="45.9" y1="43.2" x2="45.9" y2="46.9"/>
			<line id="XMLID_36_" class="st3" x1="50.6" y1="43.2" x2="50.6" y2="46.9"/>
		</g>
		<g id="XMLID_64_" class="st2">
			<line id="XMLID_116_" class="st3" x1="43.6" y1="12.5" x2="43.6" y2="21.2"/>
			<circle id="XMLID_115_" class="st3" cx="43.6" cy="22.5" r="1.3"/>
			<path id="XMLID_111_" class="st3" d="M38.8,41.1V29c0-0.1,0.1-0.2,0.2-0.2h9.2c0.1,0,0.2,0.1,0.2,0.2v12.1"/>
			<path id="XMLID_62_" class="st3" d="M43.1,12.2h-1.4c0,0-1,4.2-3.6,7.2l2,9.3"/>
			<path id="XMLID_65_" class="st3" d="M44.1,12.2h1.4c0,0,1,4.2,3.6,7.2l-1.9,9.3"/>
		</g>
	</g>
	<g id="XMLID_100_" class="st0">
		<rect id="XMLID_84_" x="29.7" y="52.2" class="st4" width="4.7" height="2.7"/>
		<g id="XMLID_78_" class="st2">
			<polygon id="XMLID_85_" class="st3" points="39.4,52.2 24.6,52.2 23.6,50 23.6,43.7 40.4,43.7 40.4,50 			"/>
			<path id="XMLID_81_" class="st3" d="M44,30.8c0-6.6-5.3-11.9-11.9-11.9c-6.6,0-11.9,5.3-11.9,11.9c0,4.2,2.2,7.9,5.4,10v3h12.8
				v-3C41.8,38.6,44,34.9,44,30.8z"/>
			<line id="XMLID_80_" class="st3" x1="23.6" y1="47.9" x2="30.9" y2="47.9"/>
			<polyline id="XMLID_74_" class="st3" points="26.6,30.2 30.2,33.8 37.4,26.6 			"/>
			<g id="XMLID_90_">
				<path id="XMLID_86_" class="st3" d="M43.1,46l2.7,2l3.3-3.3l-4.5-6c0.8-1.3,1.5-2.8,1.8-4.4l7.4-1.1l0-4.7l-7.4-1.1
					c-0.4-1.6-1-3-1.8-4.4l4.5-6l-3.3-3.3l-6,4.5c-1.3-0.8-2.8-1.4-4.4-1.8l-1.1-7.4h-4.7l-1.1,7.4c-1.6,0.4-3,1-4.3,1.8l-6-4.5
					L15,17.2l4.5,6c-0.8,1.3-1.5,2.8-1.8,4.4l-7.4,1.1l0,4.7l7.4,1.1c0.4,1.6,1,3,1.8,4.4l-4.5,6l3.3,3.3l2.7-2"/>
			</g>
		</g>
	</g>
	<g id="XMLID_98_" class="st0">
		<g id="XMLID_82_" class="st2">
			<line id="XMLID_92_" class="st3" x1="32" y1="21.7" x2="32" y2="34.1"/>
			<circle id="XMLID_91_" class="st3" cx="32" cy="35.9" r="1.9"/>
			<path id="XMLID_89_" class="st3" d="M38.8,53.2v-8.1c0-0.2-0.1-0.3-0.3-0.3h-13c-0.2,0-0.3,0.1-0.3,0.3v8.1"/>
			<path id="XMLID_88_" class="st3" d="M32.7,21.3h2c0,0,1.4,6,5.1,10.2l-2.9,13.3"/>
			<path id="XMLID_87_" class="st3" d="M31.3,21.3h-2c0,0-1.4,6-5.1,10.2l2.7,13.3"/>
		</g>
		<g id="XMLID_147_" class="st2">
			<rect id="XMLID_134_" x="29.9" y="10.8" class="st3" width="4.8" height="4.8"/>
			<rect id="XMLID_135_" x="14.4" y="24.5" class="st3" width="4.8" height="4.8"/>
			<path id="XMLID_136_" class="st3" d="M16.8,24.5L16.8,24.5c0-6.2,5.1-11.3,11.3-11.3h1.8"/>
			<rect id="XMLID_97_" x="44.7" y="24.5" class="st3" width="4.8" height="4.8"/>
			<path id="XMLID_95_" class="st3" d="M47.1,24.5L47.1,24.5c0-6.2-5.1-11.3-11.3-11.3H34"/>
			<line id="XMLID_138_" class="st3" x1="34.7" y1="13.2" x2="50.7" y2="13.2"/>
			<line id="XMLID_94_" class="st3" x1="13.3" y1="13.2" x2="29.3" y2="13.2"/>
			<circle id="XMLID_140_" class="st3" cx="52.6" cy="13.2" r="1.9"/>
			<circle id="XMLID_142_" class="st3" cx="11.4" cy="13.2" r="1.9"/>
		</g>
	</g>
	<g id="XMLID_132_">
		<g id="XMLID_113_">
			<circle id="XMLID_105_" class="st3" cx="32.1" cy="18.4" r="3.6"/>
			<path id="XMLID_108_" class="st3" d="M30.6,15.4V9.7c0-0.1,0.1-0.1,0.1-0.1h2.7c0.1,0,0.1,0.1,0.1,0.1v5.7"/>
			<path id="XMLID_106_" class="st3" d="M12.2,54.3l-0.5-4.6l16.9-29.2l3.4,2L23.6,37l-1.9,1.3l-9.3,16
				C12.4,54.4,12.3,54.4,12.2,54.3z"/>
			<path id="XMLID_110_" class="st3" d="M51.8,54.3l0.5-4.6L35.4,20.5l-3.4,2L40.4,37l1.9,1.3l9.3,16C51.6,54.4,51.7,54.4,51.8,54.3
				z"/>
			<line id="XMLID_112_" class="st3" x1="24.4" y1="34.5" x2="39.6" y2="34.5"/>
			<line id="XMLID_109_" class="st3" x1="19.8" y1="34.5" x2="15" y2="34.5"/>
			<line id="XMLID_114_" class="st3" x1="15" y1="31.7" x2="15" y2="37.3"/>
			<line id="XMLID_117_" class="st3" x1="31.1" y1="18.4" x2="33.4" y2="18.4"/>
		</g>
		<line id="XMLID_118_" class="st5" x1="21" y1="44.3" x2="43.3" y2="44.3"/>
	</g>
	<g id="XMLID_146_" class="st0">
		<circle id="XMLID_121_" class="st4" cx="32" cy="32" r="2.3"/>
		<circle id="XMLID_124_" class="st4" cx="32" cy="32" r="12.8"/>
		<circle id="XMLID_144_" class="st4" cx="32" cy="32" r="17.2"/>
		<circle id="XMLID_145_" class="st6" cx="32" cy="32" r="21.6"/>
		<polyline id="XMLID_137_" class="st4" points="29.7,44.3 29.7,32 22.1,40.1 		"/>
		<polyline id="XMLID_139_" class="st4" points="19.7,29.8 32,29.7 23.8,22.2 		"/>
		<polyline id="XMLID_141_" class="st4" points="34.1,19.7 34.3,32 41.7,23.7 		"/>
		<polyline id="XMLID_143_" class="st4" points="44.3,33.9 32.1,34.3 40.4,41.6 		"/>
	</g>
	<g id="XMLID_163_" class="st0">
		<circle id="XMLID_149_" class="st4" cx="31.8" cy="39.6" r="1.5"/>
		<circle id="XMLID_153_" class="st4" cx="31.8" cy="39.6" r="6.7"/>
		<circle id="XMLID_155_" class="st4" cx="31.8" cy="39.6" r="9.6"/>
		<path id="XMLID_157_" class="st4" d="M39.4,53.1H24.2l-2-12.5l2-18.5c0-0.1,0.1-0.2,0.2-0.2h14.8c0.1,0,0.2,0.1,0.2,0.2l2,18.5
			L39.4,53.1z"/>
		<path id="XMLID_159_" class="st4" d="M42.8,27.4h10.2c0.2,0,0.3,0.1,0.3,0.3v25c0,0.2-0.1,0.3-0.3,0.3H10.6
			c-0.2,0-0.3-0.1-0.3-0.3v-25c0-0.2,0.1-0.3,0.3-0.3h9.8"/>
		<line id="XMLID_160_" class="st4" x1="23.4" y1="25.4" x2="39.9" y2="25.4"/>
		<line id="XMLID_161_" class="st4" x1="14.4" y1="32.1" x2="16.8" y2="32.1"/>
		<line id="XMLID_162_" class="st4" x1="10.3" y1="47" x2="20.8" y2="47"/>
		<line id="XMLID_158_" class="st4" x1="42.5" y1="47" x2="53.8" y2="47"/>
		<line id="XMLID_164_" class="st4" x1="11.7" y1="25.4" x2="17.7" y2="25.4"/>
		<path id="XMLID_166_" class="st4" d="M45.1,27.4v-2.8c0-0.1,0.1-0.2,0.2-0.2h4.8c0.1,0,0.2,0.1,0.2,0.2v2.8"/>
		<line id="XMLID_255_" class="st4" x1="32" y1="11.9" x2="32" y2="15"/>
		<line id="XMLID_252_" class="st4" x1="40" y1="10.9" x2="36.9" y2="16.3"/>
		<line id="XMLID_257_" class="st4" x1="43.6" y1="18.1" x2="40.6" y2="19.9"/>
		<line id="XMLID_265_" class="st4" x1="20.8" y1="18.4" x2="23.4" y2="19.9"/>
		<line id="XMLID_268_" class="st4" x1="24" y1="10.9" x2="27.1" y2="16.3"/>
	</g>
	<g id="XMLID_217_" class="st0">
		<g id="XMLID_170_" class="st2">
			<path id="XMLID_213_" class="st3" d="M18.6,52.5v-41c0-0.1-0.1-0.2-0.2-0.2H11c-0.1,0-0.2,0.1-0.2,0.2v41c0,0.1,0.1,0.2,0.2,0.2
				h7.4C18.5,52.7,18.6,52.6,18.6,52.5z"/>
			<line id="XMLID_212_" class="st3" x1="10.8" y1="15.3" x2="14" y2="15.3"/>
			<line id="XMLID_211_" class="st3" x1="10.8" y1="19.4" x2="14" y2="19.4"/>
			<line id="XMLID_210_" class="st3" x1="10.8" y1="23.5" x2="14" y2="23.5"/>
			<line id="XMLID_209_" class="st3" x1="10.8" y1="27.7" x2="14" y2="27.7"/>
			<line id="XMLID_208_" class="st3" x1="10.8" y1="31.8" x2="14" y2="31.8"/>
			<line id="XMLID_207_" class="st3" x1="10.8" y1="36" x2="14" y2="36"/>
			<line id="XMLID_206_" class="st3" x1="10.8" y1="40.1" x2="14" y2="40.1"/>
			<line id="XMLID_205_" class="st3" x1="10.8" y1="44.2" x2="14" y2="44.2"/>
			<line id="XMLID_204_" class="st3" x1="10.8" y1="48.4" x2="14" y2="48.4"/>
		</g>
		<g id="XMLID_176_" class="st2">
			<g id="XMLID_175_">
				<path id="XMLID_214_" class="st3" d="M20.8,47l1.2,0l0.6-4c0.8-0.2,1.6-0.5,2.4-1l3.2,2.4l1.8-1.8l-2.4-3.2
					c0.4-0.7,0.8-1.5,1-2.4l4-0.6l0-2.5l-4-0.6c-0.2-0.8-0.5-1.6-1-2.4l2.4-3.2l-1.8-1.8L25,28.5c-0.7-0.4-1.5-0.8-2.4-1l-0.6-4
					h-1.3"/>
				<path id="XMLID_177_" class="st3" d="M20.8,31.7c2,0,3.6,1.6,3.6,3.6c0,2-1.6,3.6-3.6,3.6"/>
			</g>
			<path id="XMLID_174_" class="st3" d="M53.2,49.3c0-4.6-6.8-3.4-6.8-3.4V11.7h3.4c1.9,0,3.4,1.5,3.4,3.4v28.1V49.3z"/>
			<line id="XMLID_172_" class="st3" x1="20.8" y1="16.8" x2="43.3" y2="16.8"/>
			<path id="XMLID_171_" class="st3" d="M20.8,52.7h28.5c2.1,0,3.8-1.7,3.8-3.8v-5.4"/>
			<path id="XMLID_215_" class="st7" d="M32.4,23.7c3,3,4.8,7,4.8,11.5c0,4.5-1.8,8.6-4.8,11.5"/>
		</g>
	</g>
	<g id="XMLID_239_" class="st0">
		<path id="XMLID_218_" class="st4" d="M42.5,47.2H12.8c-0.1,0-0.2-0.1-0.2-0.2V29.7c0-0.1,0.1-0.2,0.2-0.2h29.6
			c0.1,0,0.2,0.1,0.2,0.2v17.3C42.7,47.1,42.6,47.2,42.5,47.2z"/>
		<path id="XMLID_233_" class="st4" d="M36.4,39.9h-12c-0.1,0-0.2-0.1-0.2-0.2v-6.9c0-0.1,0.1-0.2,0.2-0.2h12c0.1,0,0.2,0.1,0.2,0.2
			v6.9C36.6,39.8,36.5,39.9,36.4,39.9z"/>
		<path id="XMLID_220_" class="st4" d="M38.8,47.1v4.6c0,0.1-0.1,0.2-0.2,0.2H16.7c-0.1,0-0.2-0.1-0.2-0.2v-4.6"/>
		<circle id="XMLID_219_" class="st4" cx="18.5" cy="20.7" r="8.7"/>
		<circle id="XMLID_225_" class="st4" cx="38" cy="20.7" r="8.7"/>
		<path id="XMLID_238_" class="st4" d="M38,15.2c1.5,0,2.9,0.6,3.9,1.6c1,1,1.6,2.4,1.6,3.9"/>
		<path id="XMLID_237_" class="st4" d="M18.2,15.2c1.5,0,2.9,0.6,3.9,1.6c1,1,1.6,2.4,1.6,3.9"/>
		<path id="XMLID_226_" class="st4" d="M54,45.2h-6.4c-0.1,0-0.1-0.1-0.1-0.1V31.3c0-0.1,0.1-0.1,0.1-0.1H54c0.1,0,0.1,0.1,0.1,0.1
			v13.8C54.2,45.1,54.1,45.2,54,45.2z"/>
		<line id="XMLID_229_" class="st4" x1="46.8" y1="41.1" x2="42.7" y2="41.1"/>
		<line id="XMLID_228_" class="st4" x1="42.7" y1="35.7" x2="46.8" y2="35.7"/>
		<line id="XMLID_230_" class="st4" x1="49.2" y1="34.2" x2="52.5" y2="34.2"/>
		<line id="XMLID_227_" class="st4" x1="49.1" y1="38.2" x2="52.4" y2="38.2"/>
		<line id="XMLID_231_" class="st4" x1="49" y1="42.1" x2="52.3" y2="42.1"/>
		<line id="XMLID_236_" class="st4" x1="22.4" y1="43.6" x2="30.8" y2="43.6"/>
		<line id="XMLID_234_" class="st4" x1="20.5" y1="43.6" x2="16.8" y2="43.6"/>
	</g>
	<g id="XMLID_251_" class="st0">
		<line id="XMLID_247_" class="st4" x1="47.8" y1="54.3" x2="50.7" y2="54.3"/>
		<line id="XMLID_253_" class="st4" x1="13.3" y1="54.3" x2="45.8" y2="54.3"/>
		<g id="XMLID_242_" class="st2">
			<path id="XMLID_241_" class="st3" d="M40.1,36.5H23.9c-0.1,0-0.2-0.1-0.2-0.2v-3.5c0-0.1,0.1-0.2,0.2-0.2h16.2
				c0.1,0,0.2,0.1,0.2,0.2v3.5C40.3,36.4,40.2,36.5,40.1,36.5z"/>
			<path id="XMLID_249_" class="st3" d="M38.4,30.3v-7c0-0.2-0.1-0.3-0.3-0.3H25.9c-0.2,0-0.3,0.1-0.3,0.3v7"/>
			<path id="XMLID_244_" class="st3" d="M27.2,23.3c0-2.7,2.2-4.8,4.8-4.8c2.7,0,4.8,2.2,4.8,4.8"/>
			<line id="XMLID_245_" class="st3" x1="26.1" y1="36.9" x2="23.9" y2="54.4"/>
			<line id="XMLID_243_" class="st3" x1="38" y1="36.9" x2="40.2" y2="54.4"/>
			<line id="XMLID_248_" class="st3" x1="24.9" y1="45.5" x2="33.8" y2="36.6"/>
			<line id="XMLID_246_" class="st3" x1="29.6" y1="54.3" x2="38.9" y2="45"/>
		</g>
		<path id="XMLID_250_" class="st6" d="M19.2,40.6c-3.3-3.3-5.3-7.8-5.3-12.8c0-5,2-9.5,5.3-12.8C22.5,11.7,27,9.6,32,9.6
			c5,0,9.5,2,12.8,5.3c3.3,3.3,5.3,7.8,5.3,12.8c0,5-2,9.5-5.3,12.8"/>
		<circle id="XMLID_254_" class="st4" cx="32" cy="27.5" r="2.5"/>
	</g>
	<g id="XMLID_258_" class="st0">
		<polygon id="XMLID_264_" class="st4" points="39.9,51.2 24.1,51.2 23,49 23,42.2 41,42.2 41,48.9 		"/>
		<path id="XMLID_263_" class="st4" d="M44.7,28.4c0-7-5.7-12.7-12.7-12.7c-7,0-12.7,5.7-12.7,12.7c0,4.5,2.3,8.4,5.8,10.6v3.2h13.7
			V39C42.4,36.8,44.7,32.8,44.7,28.4z"/>
		<line id="XMLID_262_" class="st4" x1="23" y1="46.7" x2="30.8" y2="46.7"/>
		<polyline id="XMLID_167_" class="st4" points="34.5,51.5 34.5,54.1 29.5,54.1 29.5,51.5 		"/>
		<path id="XMLID_261_" class="st8" d="M19.4,41.3c-3.5-3.3-5.6-8-5.6-13.2c0-10.1,8.2-18.2,18.2-18.2c10.1,0,18.2,8.2,18.2,18.2
			c0,5.3-2.3,10.1-5.9,13.4"/>
		<path id="XMLID_260_" class="st4" d="M31.3,15.7v10c1.8,0,3.2,1.5,3.2,3.2c0,1.8-1.5,3.2-3.2,3.2v10"/>
		<line id="XMLID_270_" class="st4" x1="31.3" y1="21.4" x2="36.3" y2="16.4"/>
		<line id="XMLID_259_" class="st4" x1="33" y1="26.1" x2="40.4" y2="18.8"/>
		<line id="XMLID_272_" class="st4" x1="31.6" y1="33.9" x2="43.1" y2="22.4"/>
		<line id="XMLID_273_" class="st4" x1="31.7" y1="40.3" x2="44.4" y2="27.5"/>
	</g>
	<g id="XMLID_266_" class="st0">
		<rect id="XMLID_283_" x="18.6" y="16.1" class="st4" width="30.3" height="25.8"/>
		<line id="XMLID_282_" class="st4" x1="18.6" y1="12.5" x2="18.6" y2="45.2"/>
		<line id="XMLID_279_" class="st4" x1="14.4" y1="33.6" x2="14.4" y2="41.1"/>
		<line id="XMLID_278_" class="st4" x1="14.4" y1="17.6" x2="14.4" y2="25.1"/>
		<polyline id="XMLID_277_" class="st4" points="22.2,22.1 22.2,19 24.9,19 		"/>
		<polyline id="XMLID_276_" class="st4" points="45.4,35.7 45.4,38.7 42.7,38.7 		"/>
		<g id="XMLID_269_" class="st2">
			<path id="XMLID_471_" class="st3" d="M50.5,49.4v1.5l-3.2,0.6c-0.1,0-0.1,0-0.2,0H16.9l-2.3-1.1c-0.2-0.1-0.2-0.3,0-0.4l2.3-1.1
				h30.2c0.1,0,0.1,0,0.2,0L50.5,49.4z"/>
		</g>
		<path id="XMLID_275_" class="st4" d="M53.4,45.2H10.6c-0.1,0-0.2-0.1-0.2-0.2V12.7c0-0.1,0.1-0.2,0.2-0.2h42.8
			c0.1,0,0.2,0.1,0.2,0.2V45C53.6,45.1,53.5,45.2,53.4,45.2z"/>
		<circle id="XMLID_286_" class="st4" cx="14.4" cy="29.5" r="1.7"/>
	</g>
	<g id="XMLID_292_" class="st0">
		<path id="XMLID_294_" class="st4" d="M28.2,37.9V25.1l3.5-5.5c0.1-0.3,0.5-0.3,0.7,0l3.4,5.5v12.8"/>
		<rect id="XMLID_300_" x="29.1" y="50.2" class="st4" width="5.6" height="3.2"/>
		<polygon id="XMLID_298_" class="st4" points="40.8,50.2 23.1,50.2 21.9,47.7 21.9,40.1 41.9,40.1 41.9,47.6 		"/>
		<path id="XMLID_297_" class="st4" d="M46.1,24.7c0-7.8-6.3-14.1-14.1-14.1c-7.8,0-14.1,6.3-14.1,14.1c0,5,2.6,9.4,6.5,11.9v3.5
			h15.3v-3.5C43.6,34.1,46.1,29.7,46.1,24.7z"/>
		<line id="XMLID_296_" class="st4" x1="21.9" y1="45.2" x2="30.6" y2="45.2"/>
		<line id="XMLID_293_" class="st4" x1="32" y1="28.4" x2="32" y2="37.9"/>
		<polyline id="XMLID_290_" class="st4" points="28.2,25.1 31.9,29 35.8,25.1 		"/>
	</g>
	<g id="XMLID_301_" class="st0">
		<g id="XMLID_299_" class="st2">
			<g id="XMLID_315_">
				<line id="XMLID_321_" class="st3" x1="32" y1="23" x2="32" y2="32.2"/>
				<circle id="XMLID_320_" class="st3" cx="32" cy="33.6" r="1.4"/>
				<path id="XMLID_319_" class="st3" d="M37.1,46.6v-6.1c0-0.1-0.1-0.2-0.2-0.2h-9.7c-0.1,0-0.2,0.1-0.2,0.2v6.1"/>
				<path id="XMLID_318_" class="st3" d="M32.5,22.7H34c0,0,1,4.5,3.8,7.6l-2.2,9.9"/>
				<path id="XMLID_317_" class="st3" d="M31.5,22.7H30c0,0-1,4.5-3.8,7.6l2,9.9"/>
			</g>
			<path id="XMLID_303_" class="st9" d="M32,10.6c3.4,0,6.4,1.4,8.6,3.6c2.2,2.2,3.6,5.3,3.6,8.6c0,3.4-1.4,6.4-3.6,8.6"/>
			<path id="XMLID_302_" class="st3" d="M23.4,31.4c-2.2-2.2-3.6-5.3-3.6-8.6c0-3.4,1.4-6.4,3.6-8.6c2.2-2.2,5.3-3.6,8.6-3.6"/>
		</g>
		<path id="XMLID_797_" class="st4" d="M51.8,53.4H12.2c-0.5,0-0.9-0.4-1-0.9l-0.4-2.3h17.6l0.7,1h4.9l0.7-1h18.6l-0.4,2.3
			C52.8,53.1,52.3,53.4,51.8,53.4z"/>
		<path id="XMLID_323_" class="st4" d="M16.9,25.3h-4.2c-0.1,0-0.2,0.1-0.2,0.2v24.6"/>
		<path id="XMLID_322_" class="st4" d="M51.5,50.2V25.6c0-0.1-0.1-0.2-0.2-0.2h-4.2"/>
		<line id="XMLID_324_" class="st4" x1="16.4" y1="46.3" x2="47.1" y2="46.3"/>
	</g>
	<g id="XMLID_336_" class="st0">
		<path id="XMLID_333_" class="st4" d="M34.7,36.2v-7.4c0-0.1,0.1-0.2,0.2-0.2h17.9c0.1,0,0.2,0.1,0.2,0.2v23.1
			c0,0.1-0.1,0.2-0.2,0.2H45"/>
		<path id="XMLID_305_" class="st4" d="M41.7,52.1H17.9c-0.1,0-0.3-0.1-0.3-0.3V39.1c0-0.1,0.1-0.3,0.3-0.3h23.8
			c0.1,0,0.3,0.1,0.3,0.3v12.7C42,51.9,41.9,52.1,41.7,52.1z"/>
		<polyline id="XMLID_306_" class="st4" points="17.8,38.8 29.8,45.4 41.8,38.8 		"/>
		<path id="XMLID_308_" class="st4" d="M14.8,52.1h-3.5c-0.2,0-0.3-0.1-0.3-0.3V12.2c0-0.2,0.1-0.3,0.3-0.3h30.2
			c0.2,0,0.3,0.1,0.3,0.3v14"/>
		<g id="XMLID_311_" class="st2">
			<circle id="XMLID_307_" class="st3" cx="20" cy="18.9" r="1.7"/>
			<line id="XMLID_310_" class="st3" x1="23.3" y1="18.9" x2="25.7" y2="18.9"/>
			<line id="XMLID_309_" class="st3" x1="14.3" y1="18.9" x2="16.7" y2="18.9"/>
		</g>
		<g id="XMLID_313_" class="st2">
			<circle id="XMLID_326_" class="st3" cx="24.6" cy="48.2" r="1.4"/>
			<line id="XMLID_325_" class="st3" x1="27.3" y1="48.2" x2="29.2" y2="48.2"/>
			<line id="XMLID_314_" class="st3" x1="20" y1="48.2" x2="21.9" y2="48.2"/>
		</g>
		<g id="XMLID_329_" class="st2">
			<circle id="XMLID_335_" class="st3" cx="41.8" cy="33.4" r="1.4"/>
			<line id="XMLID_334_" class="st3" x1="44.5" y1="33.4" x2="46.4" y2="33.4"/>
			<line id="XMLID_331_" class="st3" x1="37.2" y1="33.4" x2="39.1" y2="33.4"/>
		</g>
	</g>
	<g id="XMLID_355_" class="st0">
		<g id="XMLID_342_" class="st2">
			<g id="XMLID_350_">
				<path id="XMLID_354_" class="st3" d="M45.2,42.8l-2.3,2.3c-0.1,0.1-0.2,0.1-0.3,0l-23-23L18.8,19c-0.1-0.1,0.1-0.3,0.2-0.2
					l3.1,0.7l23,23C45.3,42.6,45.3,42.8,45.2,42.8z"/>
				<line id="XMLID_353_" class="st3" x1="39.9" y1="42.9" x2="42.9" y2="40"/>
				<line id="XMLID_351_" class="st3" x1="19.8" y1="22.8" x2="22.8" y2="19.9"/>
			</g>
			<g id="XMLID_338_">
				<path id="XMLID_344_" class="st3" d="M32,37.5l-9.8,9.7c-0.1,0.1-0.2,0.1-0.2,0l-4.6-4.6c-0.1-0.1-0.1-0.2,0-0.2l10-10"/>
				<path id="XMLID_343_" class="st3" d="M32.7,27.1l10-10c0.1-0.1,0.2-0.1,0.2,0l4.6,4.6c0.1,0.1,0.1,0.2,0,0.2L37.6,32"/>
				<line id="XMLID_347_" class="st3" x1="19.8" y1="40.1" x2="21.7" y2="42.1"/>
				<line id="XMLID_346_" class="st3" x1="22.3" y1="37.5" x2="24.3" y2="39.5"/>
				<line id="XMLID_345_" class="st3" x1="24.9" y1="35" x2="26.8" y2="37"/>
				<line id="XMLID_341_" class="st3" x1="35.1" y1="24.8" x2="37" y2="26.8"/>
				<line id="XMLID_340_" class="st3" x1="37.6" y1="22.3" x2="39.6" y2="24.2"/>
				<line id="XMLID_339_" class="st3" x1="40.2" y1="19.7" x2="42.1" y2="21.7"/>
			</g>
		</g>
		<path id="XMLID_356_" class="st4" d="M32,54c-12.1,0-22-9.8-22-22c0-12.1,9.8-22,22-22c12.1,0,22,9.8,22,22"/>
		<path id="XMLID_348_" class="st6" d="M54,32c0,12.1-9.8,22-22,22"/>
	</g>
	<g id="XMLID_360_" class="st0">
		<g id="XMLID_150_" class="st2">
			<path id="XMLID_369_" class="st3" d="M42.6,33.4l0-2.4l-3.8-0.5c-0.2-0.8-0.5-1.5-0.9-2.2l2.3-3l-1.7-1.7l-3,2.3
				c-0.7-0.4-1.4-0.7-2.2-0.9l-0.5-3.8h-2.4l-0.5,3.8c-0.8,0.2-1.5,0.5-2.2,0.9l-3-2.3l-1.7,1.7l2.3,3c-0.4,0.7-0.7,1.4-0.9,2.2
				L20.4,31l0,2.4l3.8,0.6c0.2,0.8,0.5,1.5,0.9,2.2l-2.3,3l1.7,1.7l3-2.3c0.7,0.4,1.4,0.7,2.2,0.9l0.5,3.8l2.4,0l0.5-3.8
				c0.8-0.2,1.5-0.5,2.2-0.9l3,2.3l1.7-1.7l-2.3-3c0.4-0.7,0.7-1.4,0.9-2.2L42.6,33.4z"/>
			<path id="XMLID_358_" class="st3" d="M34.9,32.2c0,1.9-1.5,3.4-3.4,3.4c-1.9,0-3.4-1.5-3.4-3.4c0-1.9,1.5-3.4,3.4-3.4"/>
		</g>
		<path id="XMLID_374_" class="st4" d="M54.8,31.8c0.1,0.1,0.1,0.1,0,0.2C53.6,33.3,41.3,46.6,32,46.6c-9.3,0-21.6-13.3-22.8-14.6
			c-0.1-0.1-0.1-0.1,0-0.2c1.2-1.3,13.4-14.6,22.8-14.6C41.3,17.2,53.6,30.5,54.8,31.8z"/>
		<line id="XMLID_366_" class="st4" x1="31.8" y1="9.6" x2="31.8" y2="14.2"/>
		<line id="XMLID_365_" class="st4" x1="42.9" y1="12.5" x2="40.6" y2="16.5"/>
		<line id="XMLID_364_" class="st4" x1="20.8" y1="12.7" x2="23" y2="16.7"/>
		<line id="XMLID_363_" class="st4" x1="31.8" y1="54.4" x2="31.8" y2="49.8"/>
		<line id="XMLID_362_" class="st4" x1="42.9" y1="51.5" x2="40.6" y2="47.5"/>
		<line id="XMLID_361_" class="st4" x1="20.8" y1="51.3" x2="23" y2="47.3"/>
	</g>
	<g id="XMLID_397_" class="st0">
		<g id="XMLID_221_" class="st2">
			<path id="XMLID_224_" class="st3" d="M9.4,15.3v-3.8c0-0.2,0.1-0.3,0.3-0.3h41.7l3.2,2c0.2,0.1,0.2,0.3,0,0.4l-3.2,2H9.7
				C9.5,15.6,9.4,15.5,9.4,15.3z"/>
			<line id="XMLID_223_" class="st3" x1="13.6" y1="11" x2="13.6" y2="15.8"/>
			<line id="XMLID_222_" class="st3" x1="50.5" y1="11" x2="50.5" y2="15.8"/>
		</g>
		<g id="XMLID_373_" class="st2">
			<path id="XMLID_389_" class="st3" d="M54.2,53H10c-0.1,0-0.2-0.1-0.2-0.2v-8c0-0.1,0.1-0.2,0.2-0.2h44.2c0.1,0,0.2,0.1,0.2,0.2v8
				C54.4,52.9,54.3,53,54.2,53z"/>
			<line id="XMLID_388_" class="st3" x1="14.1" y1="44.6" x2="14.1" y2="48.1"/>
			<line id="XMLID_387_" class="st3" x1="18.6" y1="44.6" x2="18.6" y2="48.1"/>
			<line id="XMLID_386_" class="st3" x1="23" y1="44.6" x2="23" y2="48.1"/>
			<line id="XMLID_385_" class="st3" x1="27.5" y1="44.6" x2="27.5" y2="48.1"/>
			<line id="XMLID_384_" class="st3" x1="31.9" y1="44.6" x2="31.9" y2="48.1"/>
			<line id="XMLID_383_" class="st3" x1="36.4" y1="44.6" x2="36.4" y2="48.1"/>
			<line id="XMLID_382_" class="st3" x1="40.8" y1="44.6" x2="40.8" y2="48.1"/>
			<line id="XMLID_381_" class="st3" x1="45.3" y1="44.6" x2="45.3" y2="48.1"/>
			<line id="XMLID_380_" class="st3" x1="49.7" y1="44.6" x2="49.7" y2="48.1"/>
		</g>
		<g id="XMLID_505_" class="st2">
			<path id="XMLID_506_" class="st3" d="M24.3,19.5h14.9c0.7,0,2.1,0,2.1,0v7.8h-0.3c-0.2-1.5-0.6-2.4-1.1-2.8
				c-0.5-0.4-1.1-0.6-1.9-0.6h-4v13.7c0,0.6,0.1,1,0.2,1.4c0.1,0.4,0.4,0.7,0.8,1c0.4,0.2,1,0.4,1.7,0.4v0.4h-10v-0.4
				c1.1,0,1.8-0.3,2.2-0.8c0.3-0.5,0.5-1.2,0.5-2V23.9h-4c-0.7,0-1.2,0.2-1.7,0.6c-0.4,0.4-0.8,1.3-1.2,2.8h-0.3v-7.8
				C22.2,19.5,23.7,19.5,24.3,19.5z"/>
		</g>
		<g id="XMLID_404_" class="st2">
			<line id="XMLID_392_" class="st3" x1="17.7" y1="38.9" x2="17.7" y2="41.6"/>
			<line id="XMLID_391_" class="st3" x1="17.7" y1="33.9" x2="17.7" y2="36.5"/>
			<line id="XMLID_394_" class="st3" x1="17.7" y1="28.8" x2="17.7" y2="31.4"/>
			<line id="XMLID_395_" class="st3" x1="17.7" y1="23.7" x2="17.7" y2="26.3"/>
			<line id="XMLID_396_" class="st3" x1="17.7" y1="18.6" x2="17.7" y2="21.2"/>
		</g>
		<line id="XMLID_403_" class="st4" x1="45.7" y1="38.9" x2="45.7" y2="41.6"/>
		<line id="XMLID_402_" class="st4" x1="45.7" y1="33.9" x2="45.7" y2="36.5"/>
		<line id="XMLID_401_" class="st4" x1="45.7" y1="28.8" x2="45.7" y2="31.4"/>
		<line id="XMLID_400_" class="st4" x1="45.7" y1="23.7" x2="45.7" y2="26.3"/>
		<line id="XMLID_399_" class="st4" x1="45.7" y1="18.6" x2="45.7" y2="21.2"/>
	</g>
	<g id="XMLID_422_" class="st0">
		<g id="XMLID_411_" class="st2">
			<polygon id="XMLID_421_" class="st3" points="49.2,16.6 51.2,14.3 53.1,16.6 53.1,49.4 49.2,49.4 			"/>
			<line id="XMLID_420_" class="st3" x1="51.2" y1="53.2" x2="51.2" y2="49.9"/>
			<line id="XMLID_418_" class="st3" x1="51.2" y1="15" x2="51.2" y2="11.7"/>
			<line id="XMLID_416_" class="st3" x1="53.2" y1="30.4" x2="49.1" y2="30.4"/>
			<line id="XMLID_413_" class="st3" x1="53.2" y1="19.5" x2="49.1" y2="19.5"/>
			<polyline id="XMLID_412_" class="st3" points="49.2,47.1 46.5,47.1 46.5,36.3 			"/>
		</g>
		<path id="XMLID_407_" class="st4" d="M32.3,10.8H11.1c-0.2,0-0.3,0.1-0.3,0.3V52c0,0.2,0.1,0.3,0.3,0.3h31.3
			c0.2,0,0.3-0.1,0.3-0.3V21.1L32.3,10.8z"/>
		<path id="XMLID_390_" class="st4" d="M32.3,10.8v10.1c0,0.1,0.1,0.2,0.2,0.2h10.1"/>
		<line id="XMLID_405_" class="st4" x1="16.8" y1="25.2" x2="36.5" y2="25.2"/>
		<line id="XMLID_393_" class="st4" x1="16.8" y1="29" x2="36.5" y2="29"/>
		<line id="XMLID_406_" class="st4" x1="16.8" y1="32.9" x2="36.5" y2="32.9"/>
		<line id="XMLID_408_" class="st4" x1="16.8" y1="38.8" x2="36.5" y2="38.8"/>
		<line id="XMLID_409_" class="st4" x1="16.8" y1="42.8" x2="36.5" y2="42.8"/>
		<line id="XMLID_410_" class="st4" x1="16.8" y1="46.8" x2="26.5" y2="46.8"/>
	</g>
	<g id="XMLID_441_" class="st0">
		<g id="XMLID_431_" class="st2">
			<path id="XMLID_414_" class="st3" d="M45.4,53.6H11.2c-0.2,0-0.3-0.1-0.3-0.3V42.1c0-0.2,0.1-0.3,0.3-0.3h34.2
				c0.2,0,0.3,0.1,0.3,0.3v11.1C45.7,53.4,45.5,53.6,45.4,53.6z"/>
			<line id="XMLID_424_" class="st3" x1="20.6" y1="41.8" x2="20.6" y2="53.6"/>
			<line id="XMLID_417_" class="st3" x1="26.9" y1="41.8" x2="26.9" y2="53.6"/>
			<line id="XMLID_425_" class="st3" x1="33.1" y1="41.8" x2="33.1" y2="53.6"/>
			<line id="XMLID_426_" class="st3" x1="39.4" y1="41.8" x2="39.4" y2="53.6"/>
			<path id="XMLID_432_" class="st3" d="M10.9,39.9V17.7c0-0.1,0.1-0.3,0.3-0.3h11.2c0.1,0,0.3,0.1,0.3,0.3v22.2"/>
			<line id="XMLID_430_" class="st3" x1="10.9" y1="36.2" x2="22.6" y2="36.2"/>
			<line id="XMLID_429_" class="st3" x1="10.9" y1="30" x2="22.6" y2="30"/>
			<line id="XMLID_428_" class="st3" x1="10.9" y1="23.7" x2="22.6" y2="23.7"/>
			<path id="XMLID_440_" class="st3" d="M22.7,33.9l14.4-14.2c0.1-0.1,0.3-0.1,0.4,0l7.9,7.9c0.1,0.1,0.1,0.3,0,0.4L31.1,41.9"/>
			<line id="XMLID_439_" class="st3" x1="24" y1="32.9" x2="32.3" y2="41.2"/>
			<line id="XMLID_437_" class="st3" x1="28.5" y1="28.5" x2="36.7" y2="36.7"/>
			<line id="XMLID_435_" class="st3" x1="32.9" y1="24" x2="41.2" y2="32.3"/>
			<circle id="XMLID_427_" class="st3" cx="15.9" cy="47.4" r="1.3"/>
		</g>
		<path id="XMLID_442_" class="st6" d="M13.8,12.7c3.4-1.4,7.1-2.2,11-2.2s7.6,0.8,11,2.2c3.4,1.4,6.4,3.5,9,6.1s4.6,5.6,6.1,9
			c1.4,3.4,2.2,7.1,2.2,11c0,3.9-0.8,7.6-2.2,11"/>
	</g>
	<g id="XMLID_44_" class="st0">
		<g id="XMLID_446_" class="st2">
			<path id="XMLID_451_" class="st3" d="M15.2,51h-3.5c-0.1,0-0.2-0.1-0.2-0.2V16.6l1.9-2.9c0.1-0.1,0.3-0.1,0.3,0l1.8,2.9v34.2
				C15.5,50.9,15.4,51,15.2,51z"/>
			<line id="XMLID_450_" class="st3" x1="11.3" y1="47.2" x2="15.7" y2="47.2"/>
			<line id="XMLID_448_" class="st3" x1="11.3" y1="17.3" x2="15.7" y2="17.3"/>
		</g>
		<path id="XMLID_447_" class="st4" d="M22.8,51h-2.5c-0.1,0-0.2-0.1-0.2-0.2V16.2c0-0.1,0.1-0.2,0.2-0.2h2.5"/>
		<path id="XMLID_444_" class="st4" d="M42.6,15.9c0-1.6,1.3-3,3-3s3,1.3,3,3c0,1.6-1.3,3-3,3"/>
		<path id="XMLID_436_" class="st4" d="M35,15.9c0-1.6,1.3-3,3-3c1.6,0,3,1.3,3,3c0,1.6-1.3,3-3,3"/>
		<path id="XMLID_445_" class="st4" d="M26.3,15.9c0-1.6,1.3-3,3-3c1.6,0,3,1.3,3,3c0,1.6-1.3,3-3,3"/>
		<path id="XMLID_449_" class="st4" d="M52.5,15.9H24.6c-0.1,0-0.2,0.1-0.2,0.2v34.7c0,0.1,0.1,0.2,0.2,0.2h20l8.1-8.1V16.1
			C52.7,16,52.6,15.9,52.5,15.9z"/>
		<path id="XMLID_433_" class="st4" d="M52.7,43h-7.8c-0.1,0-0.3,0.1-0.3,0.3V51"/>
		<circle id="XMLID_452_" class="st8" cx="37.9" cy="33.5" r="7.5"/>
	</g>
	<g id="XMLID_453_" class="st0">
		<path id="XMLID_477_" class="st4" d="M27.7,45.2v8c0,0.1,0.1,0.2,0.3,0.2l4.1-1.7l4.1,1.7c0.1,0.1,0.3,0,0.3-0.2v-8"/>
		<path id="XMLID_715_" class="st4" d="M41.4,45.7l-8.9-4.5c-0.2-0.1-0.4-0.1-0.6,0L23.1,46c-0.4,0.2-0.9-0.1-0.9-0.6l1.6-9.9
			c0-0.2,0-0.4-0.2-0.5l-7.2-6.9c-0.4-0.3-0.2-0.9,0.3-1l9.9-1.6c0.2,0,0.4-0.2,0.4-0.3l4.3-9c0.2-0.4,0.8-0.5,1.1,0l4.5,8.9
			c0.1,0.2,0.3,0.3,0.5,0.3l9.9,1.3c0.5,0.1,0.7,0.7,0.3,1l-7.1,7.1c-0.1,0.1-0.2,0.3-0.2,0.5l1.8,9.8C42.3,45.6,41.8,46,41.4,45.7z
			"/>
		<path id="XMLID_459_" class="st4" d="M47.2,16.8c3.9,3.9,6.3,9.3,6.3,15.2c0,5.9-2.4,11.3-6.3,15.2"/>
		<path id="XMLID_457_" class="st6" d="M16.8,16.8c3.9-3.9,9.3-6.3,15.2-6.3s11.3,2.4,15.2,6.3"/>
		<path id="XMLID_456_" class="st4" d="M16.8,47.3c-3.9-3.9-6.3-9.3-6.3-15.2c0-5.9,2.4-11.3,6.3-15.2"/>
	</g>
	<g id="XMLID_465_" class="st0">
		<g id="XMLID_375_" class="st2">
			<path id="XMLID_466_" class="st3" d="M46.2,19.6h6.4c0.6,0,1,0.4,1,1v24.8c0,0.6-0.4,1-1,1h-41c-0.6,0-1-0.4-1-1V20.6
				c0-0.6,0.4-1,1-1h5.1"/>
			<line id="XMLID_379_" class="st3" x1="10.5" y1="40.6" x2="53.5" y2="40.6"/>
			<line id="XMLID_378_" class="st3" x1="21.3" y1="45.9" x2="21.3" y2="53.2"/>
			<line id="XMLID_377_" class="st3" x1="42.3" y1="45.9" x2="42.3" y2="53.2"/>
			<line id="XMLID_376_" class="st3" x1="17.5" y1="53.2" x2="46.2" y2="53.2"/>
		</g>
		<g id="XMLID_461_" class="st2">
			<path id="XMLID_472_" class="st3" d="M19,27.8C19,27.8,19.1,27.8,19,27.8l15.1,0l6.1,4.8c0.1,0.1,0.2,0,0.2-0.1v-4.7h3.2
				c0,0,0,0,0,0v-17c0,0,0,0,0,0H19.3c-0.1,0-0.2,0.1-0.2,0.2V27.8z"/>
			<line id="XMLID_464_" class="st3" x1="22.9" y1="14.9" x2="40.3" y2="14.9"/>
			<line id="XMLID_463_" class="st3" x1="22.9" y1="18.7" x2="40.3" y2="18.7"/>
			<line id="XMLID_462_" class="st3" x1="22.9" y1="22.6" x2="32.3" y2="22.6"/>
		</g>
	</g>
	<g id="XMLID_494_" class="st0">
		<path id="XMLID_491_" class="st4" d="M50.7,9.5c4.4,0,3.3,6.5,3.3,6.5h-6.4"/>
		<path id="XMLID_488_" class="st4" d="M19.7,28.8V13.9c0-2.5,2-4.5,4.5-4.5h26.6"/>
		<path id="XMLID_486_" class="st4" d="M51.2,9.5h-1.8c-2,0-3.7,1.6-3.7,3.7v15.7"/>
		<path id="XMLID_482_" class="st4" d="M48.2,37.1v6.4l6,4.2c0,0,0,0.1,0,0.1v6.6c0,0.1-0.1,0.3-0.3,0.3H11.5
			c-0.1,0-0.3-0.1-0.3-0.3v-6.6c0,0,0-0.1,0-0.1l5.8-4.2l0-6.4"/>
		<polyline id="XMLID_474_" class="st4" points="20.4,45.9 20.4,43.1 24.2,43.1 		"/>
		<polyline id="XMLID_479_" class="st4" points="23.3,51.5 23.3,48.7 27.2,48.7 		"/>
		<polyline id="XMLID_480_" class="st4" points="30.5,51.5 30.5,48.7 34.3,48.7 		"/>
		<polyline id="XMLID_481_" class="st4" points="37.6,51.5 37.6,48.7 41.5,48.7 		"/>
		<polyline id="XMLID_475_" class="st4" points="27.5,45.9 27.5,43.1 31.4,43.1 		"/>
		<polyline id="XMLID_476_" class="st4" points="34.7,45.9 34.7,43.1 38.5,43.1 		"/>
		<polyline id="XMLID_478_" class="st4" points="41.8,45.9 41.8,43.1 45.7,43.1 		"/>
		<rect id="XMLID_469_" x="13.6" y="31.6" class="st4" width="37.3" height="3.2"/>
		<rect id="XMLID_483_" x="9.7" y="29.9" class="st4" width="3.8" height="6.9"/>
		<line id="XMLID_492_" class="st4" x1="22.5" y1="15.8" x2="41.9" y2="15.8"/>
		<line id="XMLID_490_" class="st4" x1="22.5" y1="21.4" x2="41.9" y2="21.4"/>
		<line id="XMLID_493_" class="st4" x1="22.5" y1="27.1" x2="41.9" y2="27.1"/>
	</g>
	<g id="XMLID_519_" class="st0">
		<path id="XMLID_484_" class="st4" d="M35.3,54.1H21.1c-0.1,0-0.2-0.1-0.2-0.2V39.1h14.6V54C35.5,54.1,35.4,54.1,35.3,54.1z"/>
		<line id="XMLID_498_" class="st4" x1="35.5" y1="39.1" x2="37.1" y2="34.1"/>
		<path id="XMLID_497_" class="st4" d="M37.1,34.1l1.6,5v13.2c0,0.1,0,0.1-0.1,0.1l-3.3,1.7"/>
		<line id="XMLID_487_" class="st4" x1="22.5" y1="33.7" x2="20.9" y2="38.5"/>
		<path id="XMLID_496_" class="st4" d="M37.1,33.7H22.5V31c0-0.1,0.1-0.1,0.1-0.1H37c0.1,0,0.1,0.1,0.1,0.1V33.7z"/>
		<line id="XMLID_500_" class="st4" x1="25" y1="42.7" x2="31.4" y2="42.7"/>
		<line id="XMLID_499_" class="st4" x1="25" y1="45.9" x2="31.4" y2="45.9"/>
		<line id="XMLID_501_" class="st4" x1="25" y1="49" x2="31.4" y2="49"/>
		<path id="XMLID_516_" class="st4" d="M39.9,54h9.6c0.1,0,0.2-0.1,0.2-0.2V28c0-2.3-1.8-4.1-4.1-4.1l0,0V9.9h-4.9v14.1l0,0
			c-2.3,0-4.1,1.8-4.1,4.1v1.1"/>
		<line id="XMLID_503_" class="st4" x1="38.6" y1="13.5" x2="47.8" y2="13.5"/>
		<line id="XMLID_502_" class="st4" x1="38.6" y1="16.6" x2="47.8" y2="16.6"/>
		<polyline id="XMLID_512_" class="st4" points="49.7,34.4 41.3,34.4 41.3,46.8 49.7,46.8 		"/>
		<line id="XMLID_514_" class="st4" x1="43.9" y1="37.8" x2="47" y2="37.8"/>
		<line id="XMLID_504_" class="st4" x1="43.9" y1="40.5" x2="47" y2="40.5"/>
		<line id="XMLID_515_" class="st4" x1="43.9" y1="43.2" x2="47" y2="43.2"/>
		<g id="XMLID_510_" class="st2">
			<polyline id="XMLID_518_" class="st3" points="20.3,18.8 22.9,21.4 29.4,14.8 			"/>
			<path id="XMLID_517_" class="st5" d="M30.5,19.3c0,4.5-3.6,8.1-8.1,8.1c-4.5,0-8.1-3.6-8.1-8.1c0-4.5,3.6-8.1,8.1-8.1
				c1.5,0,2.9,0.4,4.1,1.1"/>
		</g>
	</g>
	<g id="XMLID_75_" class="st0">
		<g id="XMLID_73_" class="st2">
			<path id="XMLID_107_" class="st3" d="M46.2,25.8l0-2.4l-3.8-0.6c-0.2-0.8-0.5-1.6-0.9-2.3l2.3-3.1l-1.7-1.7L38.9,18
				c-0.7-0.4-1.5-0.8-2.3-0.9l-0.6-3.8h-2.4l-0.6,3.8c-0.8,0.2-1.6,0.5-2.3,0.9l-3.1-2.3l-1.7,1.7l2.3,3.1c-0.4,0.7-0.8,1.5-1,2.3
				l-3.8,0.5l0,2.4l3.8,0.6c0.2,0.8,0.5,1.6,0.9,2.3L26,31.7l1.7,1.7l3.1-2.3c0.7,0.4,1.5,0.8,2.3,0.9l0.6,3.8l2.4,0l0.6-3.8
				c0.8-0.2,1.6-0.5,2.3-0.9l3.1,2.3l1.7-1.7l-2.3-3.1c0.4-0.7,0.8-1.5,0.9-2.3L46.2,25.8z"/>
			<path id="XMLID_511_" class="st3" d="M31.4,24.6c0-1,0.4-1.8,1-2.4c0.6-0.6,1.5-1,2.4-1c1,0,1.8,0.4,2.4,1c0.6,0.6,1,1.5,1,2.4
				c0,1-0.4,1.8-1,2.4c-0.6,0.6-1.5,1-2.4,1"/>
		</g>
		<path id="XMLID_508_" class="st4" d="M45,54l0-18.6c2.7-2.7,4.4-6.4,4.4-10.5c0-4.1-1.7-7.8-4.4-10.5c-2.7-2.7-6.4-4.4-10.5-4.4
			c-4.1,0-7.8,1.7-10.5,4.4c-2.7,2.7-4.4,6.4-4.4,10.5l-4.8,9c-0.1,0.2,0,0.3,0.2,0.3l4.4,0.1v10.2c0,0.9,0.7,1.5,1.5,1.5h11.6"/>
		<line id="XMLID_522_" class="st4" x1="28.6" y1="46.7" x2="28.6" y2="54"/>
	</g>
</g>
<g id="Icon_text" class="st0">
	<g id="XMLID_7_" class="st2">
		<text id="XMLID_192_" transform="matrix(1 0 0 1 -176.7545 -76.8334)" class="st10 st11 st12">DESIGN TOOLS</text>
	</g>
	<g id="XMLID_101_" class="st2">
		<text id="XMLID_194_" transform="matrix(1 0 0 1 17.7199 -76.8334)" class="st10 st11 st12">VECTOR</text>
	</g>
	<text id="XMLID_77_" transform="matrix(1 0 0 1 -82.2207 -76.8334)" class="st2"><tspan x="0" y="0" class="st10 st11 st12">DEVELOPING</tspan><tspan x="12.6" y="7" class="st10 st11 st12">IDEAS</tspan></text>
	<g id="XMLID_133_" class="st2">
		<text id="XMLID_196_" transform="matrix(1 0 0 1 103.2016 -76.8331)" class="st10 st11 st12">PRECISION</text>
	</g>
	<g id="XMLID_169_" class="st2">
		<text id="XMLID_198_" transform="matrix(1 0 0 1 -165.6543 20.1666)" class="st10 st11 st12">CAMERA</text>
	</g>
	<g id="XMLID_216_" class="st2">
		<text id="XMLID_199_" transform="matrix(1 0 0 1 -84.8712 20.1666)" class="st10 st11 st12">PROTOTYPING</text>
	</g>
	<g id="XMLID_240_" class="st2">
		<text id="XMLID_197_" transform="matrix(1 0 0 1 20.5728 20.1664)"><tspan x="0" y="0" class="st10 st11 st12">VIDEO</tspan><tspan x="-13.3" y="7" class="st10 st11 st12">PRODUCTION</tspan></text>
	</g>
	<g id="XMLID_256_" class="st2">
		<text id="XMLID_195_" transform="matrix(1 0 0 1 104.3795 20.1665)" class="st10 st11 st12">DISCOVER</text>
	</g>
	<g id="XMLID_274_" class="st2">
		<text id="XMLID_193_" transform="matrix(1 0 0 1 196.1874 20.1665)"><tspan x="0" y="0" class="st10 st11 st12">CREATIVE</tspan><tspan x="-0.8" y="7" class="st10 st11 st12">SOLUTION</tspan></text>
	</g>
	<g id="XMLID_280_" class="st2">
		<text id="XMLID_191_" transform="matrix(1 0 0 1 -176.3748 116.7503)" class="st10 st11 st12">ILLUSTRATION</text>
	</g>
	<g id="XMLID_295_" class="st2">
		<text id="XMLID_189_" transform="matrix(1 0 0 1 -77.0433 116.7506)"><tspan x="0" y="0" class="st10 st11 st12">CREATIVE</tspan><tspan x="9.2" y="7" class="st10 st11 st12">IDEA</tspan></text>
	</g>
	<g id="XMLID_304_" class="st2">
		<text id="XMLID_188_" transform="matrix(1 0 0 1 9.539 116.7506)" class="st10 st11 st12">DIGITAL ART</text>
	</g>
	<g id="XMLID_337_" class="st2">
		<text id="XMLID_190_" transform="matrix(1 0 0 1 103.4886 116.7506)" class="st10 st11 st12">BRANDING</text>
	</g>
	<g id="XMLID_357_" class="st2">
		<text id="XMLID_287_" transform="matrix(1 0 0 1 197.8299 116.7506)"><tspan x="0" y="0" class="st10 st11 st12">GRAPHIC</tspan><tspan x="2.7" y="7" class="st10 st11 st12">DESIGN</tspan></text>
	</g>
	<g id="XMLID_371_" class="st2">
		<text id="XMLID_288_" transform="matrix(1 0 0 1 -162.7704 212.4166)" class="st10 st11 st12">VISION</text>
	</g>
	<g id="XMLID_398_" class="st2">
		<text id="XMLID_289_" transform="matrix(1 0 0 1 -83.4526 212.417)" class="st10 st11 st12">FONT DESIGN</text>
	</g>
	<g id="XMLID_423_" class="st2">
		<text id="XMLID_291_" transform="matrix(1 0 0 1 15.4582 212.4166)"><tspan x="0" y="0" class="st10 st11 st12">PROJECT</tspan><tspan x="6.2" y="7" class="st10 st11 st12">BRIEF</tspan></text>
	</g>
	<g id="XMLID_443_" class="st2">
		<text id="XMLID_312_" transform="matrix(1 0 0 1 110.2698 212.4166)"><tspan x="0" y="0" class="st10 st11 st12">COLOR</tspan><tspan x="-2.9" y="7" class="st10 st11 st12">PALETTE</tspan></text>
	</g>
	<g id="XMLID_455_" class="st2">
		<text id="XMLID_316_" transform="matrix(1 0 0 1 199.7987 212.4166)" class="st10 st11 st12">SKETCH</text>
	</g>
	<g id="XMLID_460_" class="st2">
		<text id="XMLID_327_" transform="matrix(1 0 0 1 -167.4706 306.6667)"><tspan x="0" y="0" class="st10 st11 st12">PREMIUM</tspan><tspan x="2.1" y="7" class="st10 st11 st12">QUALITY</tspan></text>
	</g>
	<g id="XMLID_359_" class="st2">
		<text id="XMLID_328_" transform="matrix(1 0 0 1 -72.6971 306.6667)"><tspan x="0" y="0" class="st10 st11 st12">ONLINE</tspan><tspan x="-9.9" y="7" class="st10 st11 st12">CONSULTING</tspan></text>
	</g>
	<g id="XMLID_495_" class="st2">
		<text id="XMLID_330_" transform="matrix(1 0 0 1 6.2451 306.6667)" class="st10 st11 st12">COPYWRITING</text>
	</g>
	<g id="XMLID_520_" class="st2">
		<text id="XMLID_332_" transform="matrix(1 0 0 1 105.4551 306.6667)"><tspan x="0" y="0" class="st10 st11 st12">PACKAGE</tspan><tspan x="3.7" y="7" class="st10 st11 st12">DESIGN</tspan></text>
	</g>
	<g id="XMLID_521_" class="st2">
		<text id="XMLID_349_" transform="matrix(1 0 0 1 187.5438 306.6663)" class="st10 st11 st12">PRODUCTIVITY</text>
	</g>
</g>
<g id="headline" class="st0">
	<circle id="XMLID_61_" class="st13" cx="-133.5" cy="-208.4" r="18.3"/>
	<circle id="XMLID_60_" class="st14" cx="-110.1" cy="-208.4" r="18.3"/>
	<circle id="XMLID_63_" class="st15" cx="-122.7" cy="-190.1" r="18.3"/>
	<g id="XMLID_1_" class="st2">
		<text id="XMLID_352_" transform="matrix(1 0 0 1 -183.7552 -194.0852)"><tspan x="0" y="0" style="fill:#231F20; font-family:'Oswald-Bold'; font-size:22.512px;">FLAT </tspan><tspan x="45.5" y="0" style="fill:#231F20; font-family:'Oswald-Light'; font-size:22.512px;">LINE </tspan><tspan x="83.9" y="0" style="fill:#231F20; font-family:'Oswald-Bold'; font-size:22.512px;">ICONS</tspan></text>
	</g>
	<g id="XMLID_2_" class="st2">
		
			<text id="XMLID_367_" transform="matrix(1 0 0 1 191.1329 -193.9056)" style="fill:#231F20; font-family:'Oswald-Light'; font-size:16.1735px;">DESIGN</text>
	</g>
</g>
</svg>
